<svg width="1480" height="1756" viewBox="0 0 1480 1756" fill="none" xmlns="http://www.w3.org/2000/svg">
<circle cx="358.195" cy="973.813" r="129.224" transform="rotate(-1.16001 358.195 973.813)" fill="#D9D9D9"/>
<line x1="354.02" y1="1094.94" x2="333.347" y2="1530.07" stroke="black" stroke-width="41"/>
<line x1="198.643" y1="1225.23" x2="332.316" y2="1201.56" stroke="black" stroke-width="41"/>
<line x1="218.064" y1="1232.41" x2="340.39" y2="1381.47" stroke="black" stroke-width="41"/>
<line y1="-20.5" x2="143.838" y2="-20.5" transform="matrix(-0.991133 -0.132876 -0.13586 0.990728 478.28 1232.34)" stroke="black" stroke-width="41"/>
<line y1="-20.5" x2="203.12" y2="-20.5" transform="matrix(-0.606398 0.795161 0.800941 0.598743 478.28 1232.34)" stroke="black" stroke-width="41"/>
<line x1="329.27" y1="1516.37" x2="167.66" y2="1741.74" stroke="black" stroke-width="41"/>
<line x1="330.649" y1="1494.68" x2="466.468" y2="1746.26" stroke="black" stroke-width="41"/>
<circle cx="408.541" cy="946.541" r="27" transform="rotate(-1.16001 408.541 946.541)" fill="black"/>
<line x1="717.466" y1="1686.45" x2="704.508" y2="452.454" stroke="#6D6868" stroke-width="277"/>
<path d="M1479.5 520.499C1479.5 666.854 1100.49 781.5 873.5 781.5C646.511 781.5 657.5 666.854 657.5 520.499C657.5 374.144 646.511 145.5 873.5 145.5C1100.49 145.5 1479.5 374.144 1479.5 520.499Z" fill="#589D6C"/>
<path d="M1106.5 265.49C1106.5 411.846 990.489 555.991 763.5 555.991C536.511 555.991 77.0002 411.846 77.0002 265.49C77.0002 119.135 468.511 0.490234 695.5 0.490234C922.489 0.490234 1106.5 119.135 1106.5 265.49Z" fill="#589D6C"/>
<path d="M1009.5 573.98C1009.5 720.336 697.989 781.5 471 781.5C244.011 781.5 0.499985 622.836 0.499985 476.48C0.499985 330.125 244.011 251.5 471 251.5C697.989 251.5 1009.5 427.625 1009.5 573.98Z" fill="#589D6C"/>
<path d="M1009.5 573.98C1009.5 720.336 697.989 781.5 471 781.5C244.011 781.5 0.499985 622.836 0.499985 476.48C0.499985 330.125 244.011 251.5 471 251.5C697.989 251.5 1009.5 427.625 1009.5 573.98Z" fill="#589D6C"/>
<ellipse cx="614.5" cy="1672.5" rx="166.5" ry="42.5" fill="#E5CD52"/>
<path d="M359.505 1464.03C359.505 1464.03 386.116 1528.69 472 1500C557.883 1471.31 572.587 1630.98 508.001 1657.5" stroke="#E5CD52" stroke-width="12"/>
</svg>
